<?xml version="1.0" encoding="UTF-8" standalone="no"?>
<!-- Generator: Adobe Illustrator 17.0.1, SVG Export Plug-In . SVG Version: 6.00 Build 0)  -->

<svg
   xmlns:dc="http://purl.org/dc/elements/1.1/"
   xmlns:cc="http://creativecommons.org/ns#"
   xmlns:rdf="http://www.w3.org/1999/02/22-rdf-syntax-ns#"
   xmlns:svg="http://www.w3.org/2000/svg"
   xmlns="http://www.w3.org/2000/svg"
   xmlns:sodipodi="http://sodipodi.sourceforge.net/DTD/sodipodi-0.dtd"
   xmlns:inkscape="http://www.inkscape.org/namespaces/inkscape"
   version="1.1"
   id="Layer_1"
   x="0px"
   y="0px"
   width="64px"
   height="64px"
   viewBox="0 0 64 64"
   style="enable-background:new 0 0 64 64;"
   xml:space="preserve"
   sodipodi:docname="icon-m-moods.svg"
   inkscape:version="0.92.3 (2405546, 2018-03-11)"><metadata
   id="metadata15"><rdf:RDF><cc:Work
       rdf:about=""><dc:format>image/svg+xml</dc:format><dc:type
         rdf:resource="http://purl.org/dc/dcmitype/StillImage" /><dc:title /></cc:Work></rdf:RDF></metadata><defs
   id="defs13"><inkscape:path-effect
   effect="spiro"
   id="path-effect884"
   is_visible="true" /><marker
   inkscape:stockid="TriangleInM"
   orient="auto"
   refY="0.0"
   refX="0.0"
   id="TriangleInM"
   style="overflow:visible"
   inkscape:isstock="true"><path
     id="path980"
     d="M 5.77,0.0 L -2.88,5.0 L -2.88,-5.0 L 5.77,0.0 z "
     style="fill-rule:evenodd;stroke:#ffffff;stroke-width:1pt;stroke-opacity:1;fill:#ffffff;fill-opacity:1"
     transform="scale(-0.4)" /></marker><marker
   inkscape:stockid="TriangleOutM"
   orient="auto"
   refY="0.0"
   refX="0.0"
   id="TriangleOutM"
   style="overflow:visible"
   inkscape:isstock="true"><path
     id="path989"
     d="M 5.77,0.0 L -2.88,5.0 L -2.88,-5.0 L 5.77,0.0 z "
     style="fill-rule:evenodd;stroke:#ffffff;stroke-width:1pt;stroke-opacity:1;fill:#ffffff;fill-opacity:1"
     transform="scale(0.4)" /></marker><marker
   inkscape:stockid="TriangleInS"
   orient="auto"
   refY="0.0"
   refX="0.0"
   id="TriangleInS"
   style="overflow:visible"
   inkscape:isstock="true"><path
     id="path983"
     d="M 5.77,0.0 L -2.88,5.0 L -2.88,-5.0 L 5.77,0.0 z "
     style="fill-rule:evenodd;stroke:#ffffff;stroke-width:1pt;stroke-opacity:1;fill:#ffffff;fill-opacity:1"
     transform="scale(-0.2)" /></marker><marker
   inkscape:stockid="Arrow2Send"
   orient="auto"
   refY="0.0"
   refX="0.0"
   id="Arrow2Send"
   style="overflow:visible;"
   inkscape:isstock="true"><path
     id="path877"
     style="fill-rule:evenodd;stroke-width:0.625;stroke-linejoin:round;stroke:#ffffff;stroke-opacity:1;fill:#ffffff;fill-opacity:1"
     d="M 8.7185878,4.0337352 L -2.2072895,0.016013256 L 8.7185884,-4.0017078 C 6.9730900,-1.6296469 6.9831476,1.6157441 8.7185878,4.0337352 z "
     transform="scale(0.3) rotate(180) translate(-2.3,0)" /></marker><inkscape:path-effect
   effect="spiro"
   id="path-effect840"
   is_visible="true" /><inkscape:path-effect
   effect="spiro"
   id="path-effect833"
   is_visible="true" />
	
	
	
</defs><sodipodi:namedview
   pagecolor="#ffffff"
   bordercolor="#666666"
   borderopacity="1"
   objecttolerance="10"
   gridtolerance="10"
   guidetolerance="10"
   inkscape:pageopacity="0"
   inkscape:pageshadow="2"
   inkscape:window-width="1920"
   inkscape:window-height="1055"
   id="namedview11"
   showgrid="false"
   inkscape:zoom="2"
   inkscape:cx="-43.358391"
   inkscape:cy="5.5314628"
   inkscape:window-x="1920"
   inkscape:window-y="0"
   inkscape:window-maximized="1"
   inkscape:current-layer="Layer_1" />
<rect
   y="0"
   x="0"
   height="64"
   width="64"
   style="opacity:0;fill:#ffffff"
   id="icon-m-battery_1_" />
<ellipse
   style="fill:none;stroke:#ffffff;stroke-width:2;stroke-miterlimit:4;stroke-dasharray:none"
   cx="32"
   cy="32"
   id="circle4"
   rx="22.658293"
   ry="22.58987" /><path
   inkscape:connector-curvature="0"
   style="opacity:0.6;fill:#ffffff;stroke-width:0.99999994"
   d="m 31.999988,16.447566 c -7.661191,0 -13.892548,6.212911 -13.892548,13.850691 h 0.181354 c 1.127048,-6.337369 7.224483,-10.689135 13.711194,-9.542678 v 3.34e-4 c 2.432067,0.430005 4.609455,1.602678 6.286559,3.275066 2.59e-4,-2.51e-4 9e-5,-8.3e-5 3.37e-4,-3.34e-4 1.676766,1.672052 2.854317,3.842548 3.285616,6.267613 h 4.32006 c 3.37e-4,-3.819059 -1.557652,-7.281908 -4.073149,-9.78982 -2.51551,-2.507914 -5.988822,-4.060872 -9.819423,-4.060872 z"
   id="path8" /><path
   style="fill:#ffffff;stroke:#ffffff;stroke-width:2;stroke-linecap:butt;stroke-linejoin:miter;stroke-miterlimit:4;stroke-dasharray:none;stroke-opacity:1"
   d="M 29.410029,34.63757 43.977328,20.097727"
   id="path897"
   inkscape:connector-curvature="0"
   sodipodi:nodetypes="cc" /><circle
   style="opacity:1;fill:#ffffff;fill-opacity:1;stroke:#ffffff;stroke-width:2;stroke-miterlimit:4;stroke-dasharray:none;stroke-dashoffset:0;stroke-opacity:1"
   id="path899"
   cx="32"
   cy="32"
   r="0.92807764" /><path
   inkscape:connector-curvature="0"
   id="path6-8-8"
   d="m 28.479723,44.080235 c 0,-0.722673 0.474317,-1.895533 1.450071,-3.585557 0.697071,-1.207398 1.7583,-2.754867 1.7583,-2.754867 0,0 1.06123,1.547469 1.758299,2.754867 0.975702,1.690024 1.450045,2.862884 1.450045,3.585557 0,1.767624 -1.439261,3.205705 -3.208371,3.205705 -1.769082,0 -3.208344,-1.438081 -3.208344,-3.205705 z"
   style="opacity:0.6;fill:#ffffff;stroke:none;stroke-width:2;stroke-miterlimit:4;stroke-dasharray:none" /><path
   inkscape:connector-curvature="0"
   id="path6-8-8-4"
   d="m 35.412783,44.080235 c 0,-0.722673 0.474317,-1.895533 1.450071,-3.585557 0.697071,-1.207398 1.7583,-2.754867 1.7583,-2.754867 0,0 1.06123,1.547469 1.758299,2.754867 0.975702,1.690024 1.450045,2.862884 1.450045,3.585557 0,1.767624 -1.439261,3.205705 -3.208371,3.205705 -1.769082,0 -3.208344,-1.438081 -3.208344,-3.205705 z"
   style="opacity:0.6;fill:#ffffff;stroke:none;stroke-width:2;stroke-miterlimit:4;stroke-dasharray:none" /><path
   inkscape:connector-curvature="0"
   id="path6-8-8-1"
   d="m 21.546663,44.080235 c 0,-0.722673 0.474317,-1.895533 1.450071,-3.585557 0.697071,-1.207398 1.7583,-2.754867 1.7583,-2.754867 0,0 1.06123,1.547469 1.758299,2.754867 0.975702,1.690024 1.450045,2.862884 1.450045,3.585557 0,1.767624 -1.439261,3.205705 -3.208371,3.205705 -1.769082,0 -3.208344,-1.438081 -3.208344,-3.205705 z"
   style="opacity:0.6;fill:#ffffff;stroke:none;stroke-width:2;stroke-miterlimit:4;stroke-dasharray:none" /></svg>